# xmcd
#
# Track frame offsets: 
#        150
#        15342
#        35439
#        52726
#        73203
#        98202
#        120328
#        136150
#        154528
#        175023
#
# Disc length: 2624 seconds
#
# Revision: 0
# Processed by: cddbd v1.5.2PL0 Copyright (c) Steve Scherf et al.
# Submitted via: ExactAudioCopy v1.0b1
#
DISCID=6f0a3e0a
DTITLE=Johnny Lorenz - Behind
DYEAR=2002
DGENRE=
TTITLE0=Just Another Day 
TTITLE1=Shy
TTITLE2=Gonna Make It Right
TTITLE3=Big Love Don't Happen Twice
TTITLE4=Living On Fire
TTITLE5=Hometown
TTITLE6=Heart In A Letter
TTITLE7=Down To The Musik
TTITLE8=Take My Chance On You
TTITLE9=To Get Back To You
EXTD=
EXTT0=
EXTT1=
EXTT2=
EXTT3=
EXTT4=
EXTT5=
EXTT6=
EXTT7=
EXTT8=
EXTT9=
PLAYORDER=
